<svg xmlns="http://www.w3.org/2000/svg" width="22.308" height="21.297" viewBox="0 0 22.308 21.297">
  <g id="Group_40" data-name="Group 40" transform="translate(-2325.346 -1296.352)">
    <g id="noun-star-1171151" transform="translate(2233.438 1262.749)">
      <path id="Path_6" data-name="Path 6" d="M103.038,33.6a.484.484,0,0,0-.437.334l-2.43,7.29H92.39a.484.484,0,0,0-.286.873l6.32,4.622L96,54.266h0a.484.484,0,0,0,.746.54l6.32-4.622,6.32,4.622a.484.484,0,0,0,.746-.54l-2.43-7.544,6.32-4.622h0a.484.484,0,0,0-.286-.873h-7.781l-2.43-7.29a.484.484,0,0,0-.484-.334Zm.024,11.147h-.024c.065.2-.185,0,.024,0h-.024c-.169.123-.04-.2.024,0h0c-.17-.125.146-.125-.024,0h.024c.064-.2.169.123,0,0h0c.209,0-.065.2,0,0Z" transform="translate(0 0)" fill="#ff274d" fill-rule="evenodd"/>
    </g>
    <circle id="Ellipse_7" data-name="Ellipse 7" cx="0.5" cy="0.5" r="0.5" transform="translate(2336 1307)" fill="#ff274d"/>
  </g>
</svg>
