<svg xmlns="http://www.w3.org/2000/svg" width="23.001" height="23.001" viewBox="0 0 23.001 23.001">
  <g id="noun-target-1151733" transform="translate(467.207 -87.801)">
    <path id="Path_4" data-name="Path 4" d="M97.56,16.8v2.73a8.814,8.814,0,0,0-8.037,8.037h-2.73v1.468h2.73A8.816,8.816,0,0,0,97.56,37.08V39.8h1.468V37.08a8.816,8.816,0,0,0,8.037-8.044h2.73V27.568h-2.73a8.814,8.814,0,0,0-8.037-8.037V16.8ZM97.544,21h.015v2.653h1.468V21a7.329,7.329,0,0,1,6.568,6.568h-2.653v1.468H105.6A7.321,7.321,0,0,1,99.028,35.6V32.95H97.56V35.6a7.321,7.321,0,0,1-6.568-6.568h2.653V27.567H90.991A7.331,7.331,0,0,1,97.545,21Z" transform="translate(-554 71)" fill="#f9f9f9"/>
  </g>
</svg>
