<svg xmlns="http://www.w3.org/2000/svg" width="22.308" height="21.297" viewBox="0 0 22.308 21.297">
  <g id="noun-star-1171151" transform="translate(-91.908 -33.603)">
    <path id="Path_6" data-name="Path 6" d="M103.038,33.6a.484.484,0,0,0-.437.334l-2.43,7.29H92.39a.484.484,0,0,0-.286.873l6.32,4.622L96,54.266h0a.484.484,0,0,0,.746.54l6.32-4.622,6.32,4.622a.484.484,0,0,0,.746-.54l-2.43-7.544,6.32-4.622h0a.484.484,0,0,0-.286-.873h-7.781l-2.43-7.29a.484.484,0,0,0-.484-.334Zm.024,2.017,2.08,6.242a.484.484,0,0,0,.461.334h6.646l-5.407,3.955h0a.484.484,0,0,0-.175.54l2.08,6.456-5.4-3.947h0a.484.484,0,0,0-.572,0l-5.4,3.947,2.08-6.456h0a.484.484,0,0,0-.175-.54L93.875,42.2h6.646a.484.484,0,0,0,.461-.334Z" transform="translate(0 0)" fill="#f9f9f9" fill-rule="evenodd"/>
  </g>
</svg>
