<svg xmlns="http://www.w3.org/2000/svg" width="38" height="25.179" viewBox="0 0 38 25.179">
  <path id="Path_14" data-name="Path 14" d="M121.829,116.452l-5.6-11.689a2.073,2.073,0,0,0-1.842-1.161H91.645a1.987,1.987,0,0,0-1.842,1.161l-5.6,11.689a2.343,2.343,0,0,0-.2.881v9.407a2.05,2.05,0,0,0,2.042,2.041h33.906a2.05,2.05,0,0,0,2.042-2.041v-9.407a1.726,1.726,0,0,0-.16-.881Zm-13.571-1.361a1.818,1.818,0,0,0-1.721,1.2,3.728,3.728,0,0,1-3.563,2.562,3.766,3.766,0,0,1-3.563-2.562,1.819,1.819,0,0,0-1.721-1.2H89.364l3.523-7.366h20.136l3.523,7.366c.04-.04-5.525-.04-8.287,0Z" transform="translate(-83.999 -103.602)" fill="#ff274d"/>
</svg>
