<svg xmlns="http://www.w3.org/2000/svg" width="23.001" height="23.001" viewBox="0 0 23.001 23.001">
  <g id="noun-target-873291" transform="translate(-103.6 -33.602)">
    <path id="Path_3" data-name="Path 3" d="M115.1,33.6a11.5,11.5,0,1,0,11.5,11.5A11.5,11.5,0,0,0,115.1,33.6Zm0,.523A10.978,10.978,0,1,1,104.123,45.1,10.974,10.974,0,0,1,115.1,34.125Zm0,2.875a8.1,8.1,0,1,0,8.1,8.1A8.107,8.107,0,0,0,115.1,37Zm0,.523a7.58,7.58,0,1,1-7.58,7.58A7.576,7.576,0,0,1,115.1,37.523Zm0,3.4a4.182,4.182,0,1,0,4.182,4.182A4.182,4.182,0,0,0,115.1,40.921Z" fill="#f9f9f9"/>
  </g>
</svg>
