<svg xmlns="http://www.w3.org/2000/svg" width="30" height="30" viewBox="0 0 30 30">
  <g id="Group_49" data-name="Group 49" transform="translate(-48 -118)">
    <rect id="Rectangle_115" data-name="Rectangle 115" width="24" height="24" transform="translate(51 121)" fill="#ece8e1"/>
    <g id="Rectangle_116" data-name="Rectangle 116" transform="translate(48 118)" fill="none" stroke="#ff274d" stroke-width="1">
      <rect width="30" height="30" stroke="none"/>
      <rect x="0.5" y="0.5" width="29" height="29" fill="none"/>
    </g>
    <g id="noun-download-1012679" transform="translate(-180.325 -2.986)">
      <path id="Path_21" data-name="Path 21" d="M243.323,128.8a.8.8,0,0,0-.8.8v8.275l-3.177-2.994a.832.832,0,0,0-1.164-.008.915.915,0,0,0,.066,1.164l4.525,4.259a.807.807,0,0,0,1.1,0l4.525-4.259a.9.9,0,0,0,.066-1.164.88.88,0,0,0-1.164.008l-3.177,2.994V129.6a.8.8,0,0,0-.8-.8ZM239.6,141.575a.8.8,0,1,0,0,1.6h7.453a.8.8,0,1,0,0-1.6Z" fill="#ff274d"/>
    </g>
  </g>
</svg>
